<svg width="80" height="80" viewBox="-36 0 511 511.99963" xmlns="http://www.w3.org/2000/svg"><path d="m309.5625 89.984375v-19.996094c-41.285156 0-143.75 0-179.96875 0v79.988281h179.96875v19.996094h119.984375v-79.988281c-14.515625 0-105.371094 0-119.984375 0zm0 0" fill="#5e6394"/><path d="m309.5625 169.972656v-19.996094h-179.96875v109.730469l-80.160156 56.121094c-2.808594 1.972656-5.476563 4.070313-7.996094 6.300781l104.082031 148.65625c4.476563-2.460937 8.78125-5.292968 12.828125-8.488281l56.171875-44.324219 50.980469 72.808594c4.429688-2.417969 8.730469-5.25 12.828125-8.488281l88.238281-69.617188c-10.648437-13.589843-17.007812-30.714843-17.007812-49.324219 0-44.183593 35.8125-79.988281 79.988281-79.988281v-113.390625zm0 0" fill="#b6e8f0"/><g fill="#ede9e8"><path d="m429.546875 283.363281v50.535157c0 18.367187-8.410156 35.722656-22.828125 47.101562l-40.152344 31.675781c-10.648437-13.589843-17.007812-30.714843-17.007812-49.324219 0-44.183593 35.8125-79.988281 79.988281-79.988281zm0 0"/><path d="m309.5625 263.367188v50.53125c0 18.367187-8.40625 35.726562-22.824219 47.105468l-40.15625 31.675782c-10.644531-13.589844-17.003906-30.71875-17.003906-49.324219 0-44.183594 35.8125-79.988281 79.984375-79.988281zm0 0"/><path d="m214.519531 417.972656 50.980469 72.808594c-38.234375 20.929688-86.933594 11.871094-114.902344-22.984375l-.007812-.011719c2.648437-1.667968 5.238281-3.5 7.757812-5.488281zm0 0"/><path d="m309.5625 29.996094v-19.996094c-36.03125 0-144.066406 0-179.96875 0v59.988281h179.96875v19.996094h119.984375v-59.988281c-14.515625 0-105.371094 0-119.984375 0zm0 0"/><path d="m41.4375 322.128906 104.082031 148.65625c-39.121093 21.40625-89.476562 11.503906-117.109375-25.867187-28.5078122-38.523438-22.136718-91.902344 13.027344-122.789063zm0 0"/></g><path d="m389.550781 139.976562c5.519531 0 10-4.476562 10-9.996093s-4.480469-10-10-10-9.996093 4.480469-9.996093 10 4.476562 9.996093 9.996093 9.996093zm0 0"/><path d="m269.570312 99.984375c-5.519531 0-10 4.480469-10 10 0 5.515625 4.480469 9.996094 10 9.996094 5.519532 0 10-4.480469 10-9.996094 0-5.519531-4.480468-10-10-10zm0 0"/><path d="m148.464844 480.53125c31.644531 33.292969 81.574218 41.058594 121.828125 19.027344.066406-.039063.136719-.082032.203125-.121094.035156-.019531.074218-.039062.109375-.058594 12.867187-7.089844 7.511719-4.761718 142.304687-110.53125 16.925782-13.355468 26.632813-33.386718 26.632813-54.949218v-303.902344c0-5.523438-4.476563-10-10-10h-109.980469v-9.996094c0-5.523438-4.476562-10-10-10h-179.972656c-5.519532 0-9.996094 4.476562-9.996094 10v244.503906c-78.070312 54.910156-77.433594 53.632813-84.757812 60.113282-.035157.03125-.070313.066406-.109376.101562-.0625.054688-.128906.105469-.191406.164062-.035156.03125-.0625.066407-.09375.097657-38.984375 34.609375-45.355468 93.609375-14.074218 135.882812 29.003906 39.222657 83.238281 52.992188 128.097656 29.667969zm17.082031-11.179688 46.855469-36.96875 38.054687 54.34375c-29.222656 11.09375-62.3125 4.34375-84.910156-17.375zm102.71875 7.949219-40.136719-57.320312 64.800782-51.128907c16.925781-13.355468 26.632812-33.386718 26.632812-54.953124v-133.925782h99.984375v93.953125c-44.929687 4.988281-79.988281 43.1875-79.988281 89.425781 0 16.964844 4.625 33.128907 13.429687 47.304688-84.992187 66.972656-80.527343 63.710938-84.722656 66.644531zm-28.691406-133.945312c0-35.195313 26.121093-64.394531 59.992187-69.261719v39.804688c0 15.410156-6.933594 29.714843-19.019531 39.253906l-31.710937 25.019531c-6.074219-10.539063-9.261719-22.402344-9.261719-34.816406zm-99.984375-223.375h89.988281c5.519531 0 9.996094-4.476563 9.996094-9.996094 0-5.523437-4.476563-10-9.996094-10h-89.988281v-19.996094h159.976562v59.988281h-159.976562zm59.992187-59.988281v-39.996094h39.992188v39.996094zm219.964844 99.984374h-99.984375v-20h29.996094c5.519531 0 9.996094-4.476562 9.996094-9.996093 0-5.523438-4.476563-10-9.996094-10h-29.996094v-19.996094h99.984375zm-99.984375-79.988281v-39.996093h39.992188v39.996093zm80.964844 293.160157-31.710938 25.019531c-6.074218-10.539063-9.261718-22.402344-9.261718-34.816407 0-35.195312 26.121093-64.394531 59.992187-69.261718v39.808594c0 15.40625-6.933594 29.710937-19.019531 39.25zm19.019531-293.160157h-39.992187v-39.996093h39.992187zm-119.980469-19.996093h-39.996094v-39.996094h39.996094zm-119.980468-39.996094v39.996094h-39.996094v-39.996094zm-44.257813 247.902344c2.671875-1.871094 4.261719-4.925782 4.261719-8.191407v-99.730469h159.976562v93.953126c-44.929687 4.988281-79.988281 43.1875-79.988281 89.425781 0 16.964843 4.625 33.128906 13.429687 47.300781-84.890624 66.902344-80.640624 63.804688-84.722656 66.648438l-93.25-133.1875c11.671875-8.175782 67.828125-47.492188 80.292969-56.21875zm-95.214844 69.773437 90.347657 129.039063c-32.871094 12.367187-71.542969 2.652343-94.015626-27.738282-22.660156-30.621094-20.519531-73.070312 3.667969-101.300781zm0 0"/></svg>
